<?xml version="1.0" encoding="UTF-8"?>
<!DOCTYPE svg  PUBLIC '-//W3C//DTD SVG 1.1//EN'  'http://www.w3.org/Graphics/SVG/1.1/DTD/svg11.dtd'>
<svg width="841.89px" height="595.28px" enable-background="new 0 0 841.89 595.275" version="1.1" viewBox="0 0 841.89 595.275" xml:space="preserve" xmlns="http://www.w3.org/2000/svg">
<rect width="841.89" height="595.28" fill="#3F3836"/>
<path d="m129.92 73.797l0.219 0.156 0.094 0.016-0.266-0.438 0.078-0.062 21.6-73.469s-21.469 73.217-21.469 73.217l0.094 0.018 52.75-73.235h0.094l-52.719 73.109 0.047 0.125-0.109 0.062 711.56 142.42-711.69-142.42-0.062 0.062 711.76 142.64-711.66-142.56 0.344 0.5-0.078 0.125-0.297-0.047 0.288 0.868-0.054 0.147 0.143 0.124 8.894 26.366-0.067 0.188 231.44 493.57h-0.085l-231.34-493.36-3.328-1.75-4.953-1.25-0.391 0.281-0.25 0.766-0.078 0.047 0.578 0.453 0.136 0.052 1.927 4.963 708.84 139.85-700.42-138.04 0.338 1.391 5.359 1.891s0.158-0.099 0.158-0.098l694.56 246.87-694.7-246.47-0.066-0.2-5.344-1.891-0.109 0.047 700.22 343.18-700.89-343.44-0.016 0.094 700.91 422.85-700.83-422.72 0.016 0.141-0.281 0.125-0.406 0.359-6.922-2.734 0.094 0.203 6.702 2.646 0.792 0.625 0.794 0.036 700.05 251.82-691.89-248.47-0.251-0.184-0.828-0.204-1.672-0.937-0.281-0.109 1.719 1-0.078 0.016-1.812-1.078-4.953-1.797-0.203-0.016 0.172 0.5 3.891 3.266 0.031 0.109-3.703-3.125-0.109-0.016-0.156-0.234-0.125-0.328-0.547-0.047-0.036 0.073 2.223 1.803 0.485 1.03 0.188 0.234 0.892 0.275 697.05 328.91-697.14-328.51-0.095-0.186-0.328-0.109-0.181 0.011-0.258-0.121-0.582 3.083 0.067 0.213 592.52 478.23-592.65-478.15-0.021 1.375-1.083 0.5 6.47 6.141 0.838-0.866 0.303-0.727 119.46-123.54-120.58 125.23 0.047 0.047 445.87-125.28-445.78 125.44v0.094l0.074 0.11 0.035 0.187 0.391 0.75h0.125l0.375 0.391 692.11-13.906v0.625l-692.36 13.422 0.203 0.391h0.125l0.234 0.391-0.01 0.12 691.81 205-691.5-204.62 2.375 3.375-0.042 0.5 24.304 38.742 664.86 356.67v0.168l-664.84-356.78 24.65 116.88 498.19 307.34-483.3-298.03-197.69 298.03 197.6-298.16-14.791-8.992 64.812 307.15h-0.625l-62.812-299.65-79.688 299.65 79.623-299.9-14.3-68.38-188.7 185.5 188.64-185.7-11.09-52.897-7.754 6.119 440.35 415.25-440.45-415.18-169.7 133.58 177.52-139.86-0.596-2.843-24.281-38.703 0.047-0.5-2.531-3.625-0.125-0.062 0.266 0.469-0.02 0.307 131.33 466.48-0.281-0.062-131.17-466.37 0.031-0.359-1.438-2.875-0.062 0.031 0.984 6.391-0.078 0.031-0.969-6.484 0.016-0.297-0.062-0.062-0.078 0.344 66.707 469.65-66.89-470.28-6.081-5.819-0.273 9.402 167.25 466.69-167.78-466.77 0.275-9.252 0.25-0.25 1.166-0.542 0.021-1.354 0.646-3.5-0.088-0.245-0.094 0.031-0.401-1.141-3.146-2.583-0.093 0.083 157.66 485.52-157.93-485.86-2-0.766 0.463 17.755 263.21 468.88-263.25-468.75-74.25 468.75 74.166-468.86-0.463-17.854-0.406-0.156-6e-3 2.01-1.775 1.693-3.672 10.859 2.155 23.24 1.271 3.167 706.74 139.62-706.67-139.5 1.396 3.354 2.271 1.229 51.083-9 59.583-145.08-59.5 145.42 0.292 0.125 6.25-1.083-119.7-144.46 119.83 144.25h0.791l0.5-0.25-192.12-144 192.08 143.62 129.25-143.62-129.08 143.75 0.334 0.167 643.42-113.92-643.13 114-0.25 0.256 442.71 451.02-443-450.94-137 450.94 136.79-450.94-7.187 1.287-0.438 0.255 651.51 292.62-651.79-292.54-61.208 449.32 61.093-449.58-0.214-0.204-189.77 246.5 189.39-246.63-0.377 0.067-50.562 8.938 0.188 1.688 0.488 0.49 702.76 195.44-702.92-195.23 0.125 0.766 2.714 1.636 0.333 1.75 1.042 0.146 211.71-161.08-211.31 160.96 0.225 1.538-2.58 18.003 1.792 2.778 698.88 100.22-698.88-99.75-16.625 411.52 15.75-396.59-142.13 172.07 142.08-172.31 0.625-15.062-1.562-2.5-0.668 4.458-83.831 409.94 83.082-409.52 0.417-0.583 3.417-22.75-0.416-0.917-128.25 435 128.06-435.38-0.812-0.125-3.062 2.458 139.56 431.82-139.25-429.96 0.083-0.208-0.458-1.438-1.688 0.208-137.32 152.37 137.31-152.5 1.415-0.17 3.334-2.646-0.312-1.708-2-1.229-0.089 0.062-0.672-0.422-0.922 0.016-0.312-1.125-21.78-19.02-29.916-26.25-86.057 16.833 85.932-16.917-85.93-75.327v-0.208l137.81 120.88 0.317 1.031h0.906l-0.141-0.828 0.094-0.094-0.411-0.453-0.183-1.812 0.281-0.312-0.562-0.312-0.68 0.047-0.695-0.391-1.156 4.969-0.906 18.531 168.47 418.4-168.48-418.19-3.189 17.563 72.418 400.61-72.604-400.57-131.29 116.3 131.42-116.59 3.156-17.469 0.844-16.406-135.42 286.97 135.39-287.19-0.719 0.438-134.67 198.25 134.54-198.34 0.162-0.035 0.667-0.396-135.37-85.542v-0.083l135.37 85.5 0.104-1.772 1.167-5.083-2.619-6.518-3.381 16.351-0.025 15.595-1.811 5.258 0.191 3.73 265.4 407.61-266.43-408.37 0.481 6.652 89.104 46.771 624.34 130.67-623.62-130.41 81.74 43.241 541.88 178.51-541.5-178.25 541.5 286.41-615.67-325.33 373.67 350.11-374.42-350.44-98.605-52.026-0.021 0.146 153.04 402.32-154.65-406.22-0.573 1.375 93.229 404.84-93.021-403.42-0.396-0.188-124.47 52.5 124.7-52.82-0.146-0.708-124.55-0.14 124.49-0.146 0.812-1.979-125.3-18.54 125.06 18.417 0.271-0.469-125.33-42.28 125.42 42.156 0.156-0.052 1.771 5.333 0.792 0.438 0.104-0.104 0.104-0.417-0.458-6.167-0.104-0.062-125.48-186.63 125.61 186.46 0.22-6e-3 0.75 1.125-0.167-3.021-128.71 4.19 128.43-4.336 0.239-0.257-128.67-71.15 128.67 70.906 0.594-1.938-0.11-0.261 0.642-1.021-129.79-27.69 129.67 27.5 0.25-0.094 0.375-1.125-130.3-80.78v-0.141l130.23 80.734 0.219-0.406-0.031-15.438-130.42 49.76 130.26-50-130.26-77.667 130.52 77.542 3.125-15.062-0.25-0.82 0.396-0.458-2.104-23.292-131.68 126.75 131.47-126.67 3.855-11.302 1.781-1.656v-2.016l-3.609-1.422-2.443-6.354-0.635-0.505-130.44 135.67 130.35-135.73 0.307-0.771-130.66 47.751 130.69-47.828 0.359-0.266-0.141-0.156-130.91 30.21 130.81-30.24-0.067-0.094-130.74 4.874 131.52-4.969 0.203-0.188-0.594-0.266 0.016-0.12-131.14-8.021 130.99 7.958 0.229-0.188-131.23-17.644 131.62 17.625 0.083-0.104-131.7-23.395 130.87 23.188 0.104-0.125-2.688-1.229 0.041-0.083 2.5 1.083 0.042-0.125-0.542-0.271-0.062-0.167-7.79-3.459-122.47 81.88 122.39-81.917-6.415-4.875-115.98 204.91 115.85-205-115.85-88 122.5 92.892 6.97 3.108 0.198-0.094 0.844 0.344-123.68-96.25 123.94 96.312 0.459-0.438s-73.709-95.875-73.709-95.875l74.042 96.125 0.208-0.042-32.881-96.082 32.5 94.812 79.37-94.812-79.375 94.875 0.438 1.271-0.021 0.125 0.042 0.104 167.3-96.375-167.28 96.422-0.125 0.141 171.52-96.563-171.36 96.531-0.031 0.062 177.94-96.593h0.292l-178.07 96.703 709.86-89.203-710.09 89.297-0.062 0.047 710.16 115.82-709.93-115.74-0.156 0.062-0.203-0.062-0.641-0.016-0.047 0.156 0.261 0.114 0.052 0.104 0.256 0.029 0.025 0.189 0.234 0.047 0.242-0.018 91.73-97.525-91.145 97.312-0.234 0.109-0.344 0.469 0.094 0.125 0.719 0.188 0.141-0.297 591.93-97.906-591.81 98.109 0.078 0.078 708.73-81.771s-708.8 81.849-708.8 81.849l-0.062 0.094-0.781 0.078-0.422-0.062-0.172 0.156 710.23-63.197-710.99 63.338 0.156 0.172 5.052 1.3 3.261 1.716-89.406-101.86h0.084l89.135 101.53 0.172-0.062-2.5-7.25-1.375-3.438-1.094 1.094 0.125 0.219-0.938 2.156-0.094-0.156-133.49-19.407 133.33 19.344-133.33-33.97 133.39 33.875 0.219-0.156-118.56-93.781 118.66 93.844 0.75-1.734-0.156-0.219v-0.125l-62.412-91.766 62.532 91.781 1.094-1.094 0.203 0.031-0.094-0.234-135.62-33.234 135.56 33.167 5e-3 -0.167-3.469-10.438-2.016-5.438-2.266-2.328-0.031-0.109 2.297 2.312v-0.094l-37.348-40.947-55.208-33.208 55.167 33.146-12.792-33.146 12.874 33.167 37.313 40.943 0.141 0.062-0.07-0.172-0.156-0.125h-0.078s-41.896-73.862-41.864-73.875c-0.023 4e-3 41.817 73.734 41.817 73.734l-10.276-44.192-12.52-27.292-107.06 176.75 107.6-177.83-0.177 0.021-107.42 106.35 107.47-106.46-0.114 0.01-107.36 63.828 106.86-63.668 0.219-0.031 0.312-0.203 0.45-1.016-0.406 1.031h0.109l0.77-1.031h0.078l-0.562 1.156-0.297 0.172-0.375 0.625 0.094 0.312s-0.062 0.093-0.062 0.094l12.391 27.078 10.297-15.094s-11.067-14.343-11.067-14.344l11.114 14.297 9.8-14.296-18.099 26.453 132.27-26.453-132.24 26.492-0.073 0.107-0.128 0.119-1.828 2.703 10.3 44.376z" fill="#D3D3CD"/>
<path d="m129.92 522.7l0.219-0.156 0.094-0.016-0.266 0.438 0.078 0.062 21.594 73.469-21.469-73.217 0.094-0.018 52.75 73.234h0.094l-52.719-73.109 0.047-0.125-0.109-0.062 711.56-142.42-711.68 142.44-0.062-0.062 711.76-142.64-711.66 142.56 0.344-0.5-0.078-0.125-0.297 0.047 0.288-0.868-0.054-0.147 0.143-0.124 8.894-26.366-0.067-0.188 231.46-493.56h-0.085l-231.36 493.35-3.328 1.75-4.953 1.25-0.391-0.281-0.25-0.766-0.078-0.047 0.578-0.453 0.136-0.053 1.927-4.963 708.84-139.85-700.42 138.05 0.338-1.391 5.359-1.891s0.158 0.099 0.158 0.098l694.56-246.87-694.7 246.47-0.066 0.199-5.344 1.891-0.109-0.047 700.22-343.18-700.89 343.44-0.016-0.094 700.91-422.85-700.83 422.72 0.016-0.141-0.281-0.125-0.406-0.359-6.922 2.734 0.094-0.203 6.702-2.646 0.792-0.625 0.794-0.035 700.05-251.82-691.89 248.47-0.251 0.184-0.828 0.203-1.672 0.938-0.281 0.109 1.719-1-0.078-0.016-1.812 1.078-4.953 1.797-0.203 0.016 0.172-0.5 3.891-3.266 0.031-0.109-3.703 3.125-0.109 0.016-0.156 0.234-0.125 0.328-0.547 0.047-0.036-0.073 2.223-1.803 0.485-1.03 0.188-0.234 0.892-0.275 697.05-328.91-697.14 328.51-0.095 0.186-0.328 0.109-0.181-0.012-0.258 0.121-0.582-3.084 0.067-0.213 592.51-478.24-592.65 478.15-0.02-1.37-1.083-0.5 6.47-6.141 0.838 0.866 0.303 0.728 119.47 123.54-120.58-125.23 0.047-0.047 445.87 125.28-445.78-125.44v-0.094l0.074-0.109c0-1e-3 0.035-0.188 0.035-0.188l0.391-0.75h0.125l0.375-0.391 692.11 13.906v-0.625l-692.36-13.422 0.203-0.391h0.125l0.234-0.391-0.016-0.109 691.81-205-691.5 204.62 2.375-3.375-0.042-0.5 24.304-38.742 664.87-356.69v-0.168l-664.85 356.78 24.65-116.88 498.2-307.34-483.31 298.03-197.69-298.02 197.6 298.16-14.791 8.992 64.812-307.15h-0.625l-62.812 299.65-79.68-299.66 79.623 299.9-14.31 68.38-188.7-185.5 188.64 185.7-11.09 52.897-7.754-6.119 440.34-415.26-440.44 415.19-169.7-133.58 177.52 139.85-0.596 2.844-24.281 38.703 0.047 0.5-2.531 3.625-0.125 0.062 0.266-0.469-0.02-0.307 131.32-466.46-0.281 0.062-131.16 466.37 0.031 0.359-1.438 2.875-0.062-0.031 0.984-6.391-0.078-0.031-0.969 6.484 0.016 0.297-0.062 0.062-0.078-0.344 66.707-469.65-66.89 470.28-6.081 5.818-0.273-9.402 167.24-466.7-167.77 466.78 0.275 9.252 0.25 0.25 1.166 0.541 0.021 1.355 0.646 3.5-0.088 0.244-0.094-0.031-0.401 1.141-3.146 2.584-0.093-0.084 157.65-485.52-157.92 485.86-2 0.766 0.463-17.756 263.21-468.88-263.25 468.75-74.251-468.74 74.166 468.86-0.463 17.854-0.406 0.156-6e-3 -2.01-1.775-1.693-3.672-10.859 2.155-23.24 1.271-3.166 706.74-139.63-706.67 139.5 1.396-3.354 2.271-1.229 51.083 9.001 59.59 145.08-59.5-145.42 0.292-0.125 6.25 1.083-119.71 144.46 119.83-144.25h0.791l0.5 0.25-192.12 144 192.08-143.62 129.25 143.62-129.08-143.75 0.334-0.166 643.42 113.92-643.13-114-0.25-0.256 442.71-451.02-443 450.94-137-450.94 136.79 450.94-7.187-1.286-0.438-0.255 651.51-292.62-651.79 292.54-61.21-449.32 61.093 449.58-0.214 0.204-189.77-246.5 189.39 246.63-0.377-0.066-50.562-8.938 0.188-1.688 0.488-0.49 702.76-195.44-702.92 195.23 0.125-0.766 2.714-1.636 0.333-1.75 1.042-0.146 211.71 161.08-211.31-160.96 0.225-1.537-2.58-18 1.792-2.778 698.88-100.22-698.88 99.75-16.62-411.52 15.75 396.59-142.14-172.07 142.08 172.31 0.625 15.062-1.562 2.5-0.668-4.459-83.831-409.94 83.082 409.52 0.417 0.584 3.417 22.75-0.42 0.93-128.25-435 128.06 435.38-0.812 0.125-3.062-2.459 139.56-431.82-139.25 429.96 0.083 0.208-0.458 1.438-1.688-0.208-137.32-152.37 137.31 152.5 1.415 0.17 3.334 2.646s-0.312 1.709-0.312 1.708l-2 1.229-0.089-0.062-0.672 0.422-0.922-0.016-0.312 1.125-21.78 19.02-29.916 26.25-86.057-16.834 85.932 16.918-85.932 75.332v0.209l137.81-120.88 0.317-1.031h0.906l-0.141 0.828 0.094 0.094-0.411 0.453-0.183 1.812 0.281 0.312-0.562 0.312-0.68-0.047-0.695 0.391-1.156-4.969-0.906-18.531 168.47-418.4-168.48 418.19-3.189-17.563 72.42-400.62-72.604 400.57-131.29-116.29 131.42 116.59 3.156 17.469 0.844 16.406-135.42-286.97 135.39 287.19-0.719-0.438-134.67-198.25 134.54 198.34 0.162 0.035 0.667 0.396-135.37 85.53v0.084l135.37-85.501 0.104 1.772 1.167 5.082-2.619 6.518-3.381-16.352-0.025-15.595-1.811-5.258 0.191-3.729 265.39-407.6-266.42 408.36 0.481-6.652 89.104-46.771 624.34-130.67-623.62 130.41 81.74-43.242 541.88-178.51-541.5 178.25 541.5-286.41-615.67 325.33 373.67-350.1-374.42 350.43-98.605 52.026-0.021-0.146 153.05-402.32-154.66 406.22-0.573-1.375 93.23-404.84-93.021 403.42-0.396 0.188-124.47-52.5 124.7 52.82-0.146 0.707-124.55 0.14 124.49 0.146 0.812 1.979-125.3 18.54 125.06-18.416 0.271 0.469-125.33 42.28 125.42-42.156 0.156 0.053 1.771-5.334 0.792-0.438 0.104 0.104 0.104 0.417-0.458 6.167-0.104 0.062-125.48 186.63 125.61-186.46 0.22 6e-3 0.75-1.125-0.167 3.021-128.71-4.19 128.43 4.336 0.239 0.258-128.67 71.15 128.67-70.906 0.594 1.938-0.11 0.261 0.642 1.021-129.79 27.69 129.67-27.5 0.25 0.094 0.375 1.125-130.3 80.78v0.141l130.23-80.734 0.219 0.406-0.031 15.438-130.42-49.76 130.26 50-130.26 77.67 130.52-77.541 3.125 15.062-0.251 0.812 0.396 0.459-2.104 23.291-131.69-126.75 131.47 126.67 3.855 11.303 1.781 1.656v2.016l-3.609 1.422-2.443 6.354-0.635 0.506-130.42-135.68 130.35 135.73 0.307 0.771-130.66-47.75 130.69 47.828 0.359 0.266-0.141 0.156-130.91-30.22 130.81 30.24-0.067 0.094-130.74-4.87 131.52 4.969 0.203 0.188-0.594 0.266 0.016 0.119-131.14 8.021 130.99-7.959 0.229 0.188-131.23 17.64 131.62-17.625 0.083 0.104-131.7 23.39 130.87-23.188 0.104 0.125-2.688 1.229 0.041 0.084 2.5-1.084 0.042 0.125-0.542 0.271-0.062 0.166-7.792 3.459-122.47-81.88 122.39 81.916-6.415 4.875-115.98-204.92 115.85 205-115.85 88 122.5-92.893 6.973-3.107 0.198 0.094 0.844-0.344-123.68 96.25 123.94-96.312 0.459 0.438-73.716 95.87 74.042-96.125 0.208 0.041-32.881 96.08 32.5-94.812 79.375 94.812-79.375-94.875 0.438-1.271-0.021-0.125 0.042-0.104 167.3 96.38-167.28-96.422-0.125-0.141 171.52 96.56-171.36-96.531-0.031-0.062 177.94 96.59h0.292l-178.07-96.703 709.86 89.2-710.09-89.297-0.062-0.047 710.16-115.82-709.93 115.75-0.156-0.062-0.203 0.062-0.641 0.016-0.047-0.156 0.261-0.114 0.052-0.104 0.256-0.029 0.025-0.189 0.234-0.047 0.242 0.018 91.73 97.529-91.145-97.312-0.234-0.109-0.344-0.469 0.094-0.125 0.719-0.188 0.141 0.297 591.93 97.89-591.81-98.109 0.078-0.078 708.73 81.771-708.8-81.85-0.062-0.094-0.781-0.078-0.422 0.062-0.172-0.156 710.23 63.197-710.98-63.338 0.156-0.172 5.052-1.3 3.261-1.716-89.413 101.87h0.084l89.135-101.53 0.172 0.062-2.5 7.25-1.375 3.438-1.094-1.094 0.125-0.219-0.938-2.156-0.094 0.156-133.49 19.4 133.33-19.344-133.33 33.97 133.39-33.875 0.219 0.156-118.56 93.78 118.66-93.844 0.75 1.734-0.156 0.219v0.125l-62.412 91.76 62.532-91.781 1.094 1.094 0.203-0.031-0.094 0.234-135.62 33.24 135.56-33.166 5e-3 0.166-3.469 10.438-2.016 5.438-2.266 2.328-0.031 0.109 2.297-2.312v0.094l-37.354 40.947-55.202 33.2 55.167-33.146-12.792 33.15 12.874-33.166 37.313-40.943 0.141-0.062-0.062 0.172-0.156 0.125h-0.078s-41.896 73.862-41.864 73.875c-0.023-4e-3 41.817-73.734 41.817-73.734l-10.276 44.192-12.541 27.292-107.05-176.75 107.6 177.83-0.177-0.021-107.42-106.35 107.47 106.46-0.114-0.01-107.36-63.83 106.86 63.668 0.219 0.031 0.312 0.203 0.453 1.016-0.406-1.031h0.109l0.766 1.031h0.078l-0.562-1.156-0.297-0.172-0.375-0.625 0.094-0.312-0.062-0.094 12.391-27.078 10.297 15.094-11.07 14.35 11.114-14.297 9.802 14.297-18.099-26.453 132.27 26.45-132.23-26.492-0.073-0.107-0.128-0.119-1.828-2.703 10.29-44.38z" fill="#D3D3CD"/>
<path d="m711.97 522.7l-0.219-0.156-0.094-0.016 0.266 0.438-0.078 0.062-21.6 73.48 21.469-73.217-0.094-0.018-52.75 73.234h-0.094l52.719-73.109-0.047-0.125 0.109-0.062-711.57-142.42 711.7 142.42 0.062-0.062-711.76-142.64 711.66 142.56-0.344-0.5 0.078-0.125 0.297 0.047-0.288-0.868 0.054-0.147-0.143-0.124-8.894-26.366 0.067-0.188-231.46-493.56h0.085l231.36 493.35 3.328 1.75 4.953 1.25 0.391-0.281 0.25-0.766 0.078-0.047-0.578-0.453-0.136-0.053-1.927-4.963-708.83-139.85 700.42 138.05-0.338-1.391-5.359-1.891s-0.158 0.099-0.158 0.098l-694.56-246.87 694.7 246.48 0.066 0.199 5.344 1.891 0.109-0.047-700.22-343.19 700.89 343.44 0.016-0.094-700.91-422.85 700.83 422.72-0.016-0.141 0.281-0.125 0.406-0.359 6.922 2.734-0.094-0.203-6.702-2.646-0.792-0.625-0.794-0.035-700.05-251.82 691.89 248.47 0.251 0.184 0.828 0.203 1.672 0.938 0.281 0.109-1.719-1 0.078-0.016 1.812 1.078 4.953 1.797 0.203 0.016-0.172-0.5-3.891-3.266-0.031-0.109 3.703 3.125 0.109 0.016 0.156 0.234 0.125 0.328 0.547 0.047 0.036-0.073-2.223-1.803-0.485-1.03-0.188-0.234-0.892-0.275-697.04-328.91 697.14 328.51 0.095 0.186 0.328 0.109 0.181-0.012 0.25 0.12 0.582-3.084-0.067-0.213-592.51-478.24 592.65 478.15 0.021-1.375 1.083-0.5-6.47-6.141-0.838 0.866-0.303 0.728-119.47 123.54 120.58-125.23-0.047-0.047-445.87 125.28 445.78-125.44v-0.094l-0.074-0.109c0-1e-3 -0.035-0.188-0.035-0.188l-0.391-0.75h-0.125l-0.375-0.391-692.1 13.91v-0.625l692.36-13.422-0.2-0.4h-0.125l-0.234-0.391 0.016-0.109-691.81-205 691.5 204.62-2.375-3.375 0.042-0.5-24.304-38.742-664.88-356.67v-0.168l664.84 356.77-24.65-116.88-498.19-307.32 483.31 298.02 197.69-298.02-197.6 298.15 14.791 8.992-64.82-307.14h0.625l62.812 299.65 79.688-299.65-79.623 299.9 14.311 68.375 188.7-185.5-188.64 185.7 11.09 52.897 7.754-6.119-440.34-415.26 440.44 415.18 169.7-133.57-177.52 139.86 0.596 2.844 24.281 38.703-0.047 0.5 2.531 3.625 0.125 0.062-0.266-0.469 0.02-0.307-131.33-466.48 0.281 0.062 131.16 466.37-0.031 0.359 1.438 2.875 0.062-0.031-0.984-6.391 0.078-0.031 0.969 6.484-0.016 0.297 0.062 0.062 0.078-0.344-66.71-469.64 66.89 470.27 6.081 5.818 0.273-9.402-167.25-466.7 167.78 466.77-0.275 9.252-0.25 0.25-1.166 0.541-0.021 1.355-0.646 3.5 0.088 0.244 0.094-0.031 0.401 1.141 3.146 2.584 0.093-0.084-157.64-485.5 157.92 485.87 2 0.766-0.463-17.756-263.21-468.88 263.25 468.75 74.25-468.75-74.166 468.86 0.463 17.854 0.406 0.156 6e-3 -2.01 1.775-1.693 3.672-10.859-2.15-23.25-1.271-3.166-706.73-139.62 706.67 139.5-1.396-3.354-2.271-1.229-51.083 9.001-59.59 145.08 59.5-145.42-0.292-0.125-6.25 1.083 119.71 144.46-119.83-144.25h-0.791l-0.5 0.25 192.13 144-192.09-143.62-129.26 143.62 129.09-143.75-0.334-0.166-643.42 113.92 643.13-114 0.25-0.256-442.71-451.02 443 450.94 137-450.94-136.79 450.95 7.187-1.286 0.438-0.255-651.51-292.62 651.79 292.54 61.21-449.32-61.093 449.58 0.214 0.204 189.77-246.5-189.39 246.63 0.377-0.066 50.562-8.938-0.188-1.688-0.488-0.49-702.76-195.44 702.92 195.23-0.125-0.766-2.714-1.636-0.333-1.75-1.042-0.146-211.72 161.08 211.31-160.96-0.225-1.537 2.58-18.004-1.792-2.778-698.87-100.22 698.88 99.75 16.62-411.52-15.75 396.59 142.14-172.06-142.08 172.3-0.625 15.062 1.562 2.5 0.668-4.459 83.84-409.94-83.08 409.53-0.417 0.584-3.417 22.75 0.416 0.916 128.25-435-128.06 435.38 0.812 0.125 3.062-2.459-139.56-431.82 139.25 429.96-0.083 0.208 0.458 1.438 1.688-0.208 137.32-152.37-137.31 152.5-1.415 0.17-3.334 2.646s0.312 1.709 0.312 1.708l2 1.229 0.089-0.062 0.672 0.422 0.922-0.016 0.312 1.125 21.79 19.02 29.916 26.25 86.057-16.834-85.932 16.918 85.932 75.332v0.209l-137.82-120.88-0.317-1.031h-0.906l0.141 0.828-0.094 0.094 0.411 0.453 0.183 1.812-0.281 0.312 0.562 0.312 0.68-0.047 0.695 0.391 1.156-4.969 0.906-18.531-168.46-418.38 168.48 418.17 3.189-17.563-72.42-400.62 72.604 400.57 131.29-116.29-131.42 116.59-3.156 17.469-0.844 16.406 135.42-286.97-135.39 287.19 0.719-0.438 134.67-198.25-134.54 198.34-0.162 0.035-0.667 0.396 135.37 85.542v0.084l-135.37-85.501-0.104 1.772-1.167 5.082 2.619 6.518 3.381-16.352 0.025-15.595 1.811-5.258-0.191-3.729-265.4-407.6 266.42 408.36-0.481-6.652-89.104-46.771-624.34-130.67 623.62 130.41-81.74-43.242-541.88-178.5 541.5 178.25-541.5-286.42 615.67 325.33-373.67-350.1 374.42 350.44 98.605 52.026 0.021-0.146-153.04-402.32 154.66 406.21 0.573-1.375-93.23-404.84 93.021 403.42 0.396 0.188 124.47-52.501-124.7 52.813 0.146 0.707 124.55 0.15-124.49 0.146-0.812 1.979 125.31 18.541-125.07-18.42-0.271 0.469 125.33 42.28-125.42-42.156-0.156 0.053-1.771-5.334-0.792-0.438-0.104 0.104-0.104 0.417 0.458 6.167 0.104 0.062 125.47 186.63-125.61-186.46-0.22 6e-3 -0.75-1.125 0.167 3.021 128.72-4.188-128.43 4.336-0.239 0.258 128.67 71.15-128.67-70.906-0.594 1.938 0.11 0.261-0.642 1.021 129.79 27.69-129.67-27.5-0.25 0.094-0.375 1.125 130.29 80.78v0.141l-130.23-80.734-0.219 0.406 0.031 15.438 130.42-49.75-130.26 50 130.26 77.666-130.52-77.541-3.125 15.062 0.251 0.812-0.396 0.459 2.104 23.291 131.7-126.76-131.47 126.67-3.855 11.303-1.781 1.656v2.016l3.609 1.422 2.443 6.354 0.635 0.506 130.43-135.68-130.35 135.73-0.307 0.771 130.66-47.75-130.69 47.828-0.359 0.266 0.141 0.156 130.9-30.209-130.81 30.24 0.067 0.094 130.75-4.88-131.52 4.969-0.203 0.188 0.594 0.266-0.016 0.119 131.14 8.021-130.99-7.959-0.229 0.188 131.22 17.646-131.61-17.64-0.083 0.104 131.7 23.396-130.87-23.19-0.104 0.125 2.688 1.229-0.041 0.084-2.5-1.084-0.042 0.125 0.542 0.271 0.062 0.166 7.792 3.459 122.47-81.875-122.39 81.92 6.415 4.875 115.97-204.92-115.85 205 115.85 88-122.5-92.893-6.973-3.107-0.198 0.094-0.844-0.344 123.69 96.25-123.94-96.312-0.459 0.438 73.709 95.875-74.042-96.125-0.208 0.041 32.875 96.084-32.5-94.812-79.38 94.81 79.375-94.875-0.438-1.271 0.021-0.125-0.042-0.104-167.29 96.38 167.28-96.422 0.125-0.141-171.54 96.56 171.36-96.531 0.031-0.062-177.93 96.59h-0.292l178.07-96.703-709.86 89.2 710.09-89.297 0.062-0.047-710.15-115.82 709.92 115.74 0.156-0.062 0.203 0.062 0.641 0.016 0.047-0.156-0.261-0.114-0.052-0.104-0.256-0.029-0.03-0.19-0.234-0.047-0.242 0.018-91.73 97.529 91.145-97.312 0.234-0.109 0.344-0.469-0.094-0.125-0.719-0.188-0.141 0.297-591.94 97.91 591.81-98.109-0.078-0.078-708.73 81.77 708.8-81.85 0.062-0.094 0.781-0.078 0.422 0.062 0.172-0.156-710.23 63.21 710.98-63.338-0.156-0.172-5.052-1.3-3.261-1.716 89.41 101.86h-0.084l-89.135-101.53-0.172 0.062 2.5 7.25 1.375 3.438 1.094-1.094-0.125-0.219 0.938-2.156 0.094 0.156 133.48 19.406-133.33-19.344 133.33 33.969-133.39-33.875-0.219 0.156 118.57 93.76-118.66-93.844-0.75 1.734 0.156 0.219v0.125l62.42 91.76-62.532-91.781-1.094 1.094-0.203-0.031 0.094 0.234 135.62 33.234-135.56-33.166-5e-3 0.166 3.469 10.438 2.016 5.438 2.266 2.328 0.031 0.109-2.297-2.312v0.094l37.354 40.947 55.208 33.209-55.167-33.146 12.792 33.146-12.874-33.166-37.313-40.943-0.141-0.062 0.062 0.172 0.156 0.125h0.078s41.896 73.862 41.864 73.875c0.023-4e-3 -41.817-73.734-41.817-73.734l10.276 44.192 12.541 27.292 107.06-176.75-107.6 177.83 0.177-0.021 107.42-106.35-107.47 106.46 0.114-0.01 107.36-63.824-106.86 63.66-0.219 0.031-0.312 0.203-0.453 1.016 0.406-1.031h-0.109l-0.766 1.031h-0.078l0.562-1.156 0.297-0.172 0.375-0.625-0.094-0.312 0.062-0.094-12.391-27.078-10.297 15.094 11.067 14.344-11.114-14.297-9.802 14.297 18.099-26.453-132.28 26.46 132.23-26.492 0.073-0.107 0.128-0.119 1.828-2.703-10.29-44.38z" fill="#D3D3CD"/>
<path d="m711.97 73.797l-0.219 0.156-0.094 0.016 0.266-0.438-0.078-0.062-21.6-73.469s21.469 73.217 21.469 73.217l-0.094 0.018-52.76-73.235h-0.094l52.719 73.109-0.047 0.125 0.109 0.062-711.56 142.42 711.7-142.42 0.062 0.062-711.76 142.64 711.66-142.56-0.344 0.5 0.078 0.125 0.297-0.047-0.288 0.868 0.054 0.147-0.143 0.124-8.894 26.366 0.067 0.188-231.46 493.57h0.085l231.36-493.35 3.328-1.75 4.953-1.25 0.391 0.281 0.25 0.766 0.078 0.047-0.578 0.453-0.136 0.052-1.927 4.963-708.83 139.85 700.42-138.05-0.338 1.391-5.359 1.891s-0.158-0.099-0.158-0.098l-694.56 246.87 694.7-246.48 0.066-0.2 5.344-1.891 0.109 0.047-700.22 343.19 700.89-343.44 0.016 0.094-700.91 422.85 700.83-422.72-0.016 0.141 0.281 0.125 0.406 0.359 6.922-2.734-0.094 0.203-6.702 2.646-0.792 0.625-0.794 0.036-700.05 251.82 691.89-248.47 0.251-0.184 0.828-0.204 1.672-0.937 0.281-0.109-1.719 1 0.078 0.016 1.812-1.078 4.953-1.797 0.203-0.016-0.172 0.5-3.891 3.266-0.031 0.109 3.703-3.125 0.109-0.016 0.156-0.234 0.125-0.328 0.547-0.047 0.036 0.073-2.223 1.803-0.485 1.03-0.188 0.234-0.892 0.275-697.04 328.91 697.14-328.51 0.095-0.186 0.328-0.109 0.181 0.011 0.25-0.12 0.582 3.083-0.067 0.213-592.51 478.24 592.65-478.15 0.021 1.375 1.083 0.5-6.47 6.141-0.838-0.866-0.303-0.727-119.47-123.54 120.58 125.23-0.047 0.047-445.87-125.28 445.78 125.44v0.094l-0.074 0.11-0.035 0.187-0.391 0.75h-0.125l-0.375 0.391-692.1-13.91v0.625l692.36 13.422-0.203 0.391h-0.125l-0.234 0.391 0.016 0.109-691.83 205.01 691.5-204.62-2.375 3.375 0.042 0.5-24.304 38.742-664.86 356.67v0.168l664.84-356.77-24.65 116.88-498.19 307.33 483.31-298.03 197.69 298.02-197.6-298.15 14.791-8.992-64.812 307.15h0.625l62.812-299.65 79.688 299.65-79.623-299.9 14.31-68.38 188.7 185.5-188.64-185.7 11.09-52.897 7.754 6.119-440.35 415.25 440.44-415.18 169.7 133.57-177.51-139.85 0.596-2.843 24.281-38.703-0.047-0.5 2.531-3.625 0.125-0.062-0.266 0.469 0.02 0.307-131.33 466.48 0.281-0.062 131.16-466.37-0.031-0.359 1.438-2.875 0.062 0.031-0.984 6.391 0.078 0.031 0.969-6.484-0.016-0.297 0.062-0.062 0.078 0.344-66.707 469.65 66.89-470.28 6.081-5.819 0.273 9.402-167.25 466.7 167.78-466.77-0.275-9.252-0.25-0.25-1.166-0.542-0.021-1.354-0.646-3.5 0.088-0.245 0.094 0.031 0.401-1.141 3.146-2.583 0.093 0.083-157.64 485.51 157.92-485.87 2-0.766-0.463 17.755-263.21 468.88 263.25-468.75 74.25 468.75-74.166-468.86 0.463-17.854 0.406-0.156 6e-3 2.01 1.775 1.693 3.672 10.859-2.15 23.24-1.271 3.167-706.73 139.62 706.67-139.5-1.396 3.354-2.271 1.229-51.083-9-59.583-145.08 59.5 145.42-0.292 0.125-6.25-1.083 119.7-144.46-119.83 144.25h-0.791l-0.5-0.25 192.13-144-192.09 143.62-129.26-143.62 129.09 143.75-0.334 0.167-643.42-113.92 643.13 114 0.25 0.256-442.71 451.02 443-450.94 137 450.94-136.79-450.95 7.187 1.287 0.438 0.255-651.51 292.62 651.79-292.54 61.208 449.32-61.093-449.58 0.214-0.204 189.77 246.5-189.39-246.63 0.377 0.067 50.562 8.938-0.188 1.688-0.488 0.49-702.76 195.44 702.92-195.23-0.125 0.766-2.714 1.636-0.333 1.75-1.042 0.146-211.72-161.08 211.31 160.96-0.225 1.538 2.58 18.003-1.792 2.778-698.87 100.22 698.88-99.75 16.625 411.52-15.75-396.59 142.14 172.06-142.08-172.3-0.625-15.062 1.562-2.5 0.668 4.458 83.832 409.94-83.07-409.53-0.417-0.583-3.417-22.75 0.416-0.917 128.25 435-128.06-435.38 0.812-0.125 3.062 2.458-139.56 431.82 139.25-429.96-0.083-0.208 0.458-1.438 1.688 0.208 137.32 152.37-137.31-152.5-1.415-0.17-3.334-2.646 0.312-1.708 2-1.229 0.089 0.062 0.672-0.422 0.922 0.016 0.312-1.125 21.776-19.031 29.916-26.25 86.057 16.833-85.932-16.917 85.932-75.333v-0.208l-137.81 120.89-0.317 1.031h-0.906l0.141-0.828-0.094-0.094 0.411-0.453 0.183-1.812-0.281-0.312 0.562-0.312 0.68 0.047 0.695-0.391 1.156 4.969 0.906 18.531-168.47 418.4 168.48-418.17 3.189 17.563-72.418 400.61 72.604-400.57 131.3 116.28-131.42-116.59-3.156-17.469-0.844-16.406 135.42 286.97-135.39-287.19 0.719 0.438 134.67 198.25-134.54-198.34-0.162-0.035-0.667-0.396 135.37-85.542v-0.083l-135.37 85.5-0.104-1.772-1.167-5.083 2.619-6.518 3.381 16.351 0.025 15.595 1.811 5.258-0.191 3.73-265.4 407.61 266.42-408.36-0.481 6.652-89.104 46.771-624.34 130.66 623.62-130.41-81.74 43.241-541.88 178.5 541.5-178.25-541.5 286.42 615.67-325.33-373.67 350.11 374.42-350.44 98.605-52.026 0.021 0.146-153.04 402.32 154.66-406.21 0.573 1.375-93.229 404.84 93.021-403.42 0.396-0.188 124.47 52.5-124.7-52.813 0.146-0.708 124.56-0.146-124.49-0.146-0.812-1.979 125.31-18.542-125.08 18.42-0.271-0.469 125.33-42.28-125.42 42.156-0.156-0.052-1.771 5.333-0.792 0.438-0.104-0.104-0.104-0.417 0.458-6.167 0.104-0.062 125.47-186.63-125.61 186.46-0.22-6e-3 -0.75 1.125 0.167-3.021 128.72 4.188-128.43-4.336-0.239-0.257 128.67-71.15-128.67 70.906-0.594-1.938 0.11-0.261-0.642-1.021 129.79-27.69-129.67 27.5-0.25-0.094-0.375-1.125 130.29-80.78v-0.141l-130.23 80.734-0.219-0.406 0.031-15.438 130.42 49.76-130.26-50 130.26-77.667-130.52 77.542-3.125-15.062 0.26-0.82-0.396-0.458 2.104-23.292 131.68 126.75-131.46-126.67-3.855-11.302-1.781-1.656v-2.016l3.609-1.422 2.443-6.354 0.635-0.505 130.43 135.67-130.35-135.73-0.307-0.771 130.66 47.751-130.69-47.828-0.359-0.266 0.141-0.156 130.9 30.208-130.81-30.24 0.067-0.094 130.74 4.875-131.52-4.969-0.203-0.188 0.594-0.266-0.016-0.12 131.14-8.021-130.99 7.958-0.229-0.188 131.22-17.646-131.6 17.628-0.083-0.104 131.7-23.396-130.87 23.187-0.104-0.125 2.688-1.229-0.041-0.083-2.5 1.083-0.042-0.125 0.542-0.271 0.062-0.167 7.79-3.458 122.47 81.875-122.39-81.922 6.415-4.875 115.97 204.92-115.85-205 115.85-88-122.5 92.892-6.97 3.108-0.198-0.094-0.844 0.344 123.68-96.25-123.94 96.312-0.459-0.438s73.709-95.875 73.709-95.875l-74.042 96.125-0.208-0.042 32.88-96.082-32.5 94.812-79.38-94.812 79.375 94.875-0.438 1.271 0.021 0.125-0.042 0.104-167.29-96.375 167.28 96.422 0.125 0.141-171.54-96.563 171.36 96.531 0.031 0.062-177.93-96.593h-0.292l178.07 96.703-709.86-89.203 710.09 89.297 0.062 0.047-710.15 115.83 709.92-115.75 0.156 0.062 0.203-0.062 0.641-0.016 0.047 0.156-0.261 0.114-0.052 0.104-0.256 0.029-0.025 0.189-0.234 0.047-0.242-0.018-91.74-97.525 91.145 97.312 0.234 0.109 0.344 0.469-0.094 0.125-0.719 0.188-0.141-0.297-591.94-97.906 591.81 98.109-0.078 0.078-708.73-81.77s708.8 81.849 708.8 81.849l0.062 0.094 0.781 0.078 0.422-0.062 0.172 0.156-710.23-63.198 710.98 63.338-0.156 0.172-5.052 1.3-3.261 1.716 89.406-101.86h-0.084l-89.135 101.53-0.172-0.062 2.5-7.25 1.375-3.438 1.094 1.094-0.125 0.219 0.938 2.156 0.094-0.156 133.48-19.406-133.31 19.342 133.33-33.969-133.39 33.875-0.219-0.156 118.55-93.781-118.66 93.844-0.75-1.734 0.156-0.219v-0.125l62.42-91.766-62.532 91.781-1.094-1.094-0.203 0.031 0.094-0.234 135.62-33.234-135.56 33.167-5e-3 -0.167 3.469-10.438 2.016-5.438 2.266-2.328 0.031-0.109-2.297 2.312v-0.094l37.354-40.948 55.21-33.207-55.167 33.146 12.8-33.146-12.874 33.167-37.313 40.943-0.141 0.062 0.05-0.172 0.156-0.125h0.078s41.896-73.862 41.864-73.875c0.023 4e-3 -41.817 73.734-41.817 73.734l10.276-44.192 12.54-27.292 107.06 176.75-107.6-177.83 0.177 0.021 107.42 106.35-107.47-106.46 0.114 0.01 107.36 63.824-106.86-63.664-0.219-0.031-0.312-0.203-0.45-1.016 0.406 1.031h-0.109l-0.77-1.031h-0.078l0.562 1.156 0.297 0.172 0.375 0.625-0.094 0.312s0.062 0.093 0.062 0.094l-12.391 27.078-10.297-15.094s11.067-14.343 11.067-14.344l-11.114 14.297-9.81-14.296 18.099 26.453-132.27-26.453 132.23 26.492 0.073 0.107 0.128 0.119 1.828 2.703-10.29 44.376z" fill="#D3D3CD"/>
</svg>
