<?xml version="1.0" encoding="iso-8859-1"?>
<!-- Generator: Adobe Illustrator 19.0.0, SVG Export Plug-In . SVG Version: 6.00 Build 0)  -->
<svg version="1.1" id="Capa_1" xmlns="http://www.w3.org/2000/svg" xmlns:xlink="http://www.w3.org/1999/xlink" x="0px" y="0px"
	 viewBox="0 0 480 480" style="enable-background:new 0 0 480 480;" xml:space="preserve">
<g>
	<g>
		<path d="M98.344,210.344L64,244.688l-18.344-18.344l-11.312,11.312l24,24C59.904,263.216,61.952,264,64,264
			s4.096-0.784,5.656-2.344l40-40L98.344,210.344z"/>
	</g>
</g>
<g>
	<g>
		<path d="M434.344,210.344L400,244.688l-18.344-18.344l-11.312,11.312l24,24c1.56,1.56,3.608,2.344,5.656,2.344
			c2.048,0,4.096-0.784,5.656-2.344l40-40L434.344,210.344z"/>
	</g>
</g>
<g>
	<g>
		<path d="M98.344,42.344L64,76.688L45.656,58.344L34.344,69.656l24,24C59.904,95.216,61.952,96,64,96s4.096-0.784,5.656-2.344
			l40-40L98.344,42.344z"/>
	</g>
</g>
<g>
	<g>
		<path d="M320,280v-32h16.472c4,35.944,34.536,64,71.528,64c39.696,0,72-32.296,72-72c0-39.704-32.304-72-72-72
			c-36.992,0-67.536,28.056-71.528,64H320v-32c0-0.736-0.12-1.456-0.312-2.152c-0.064-0.224-0.168-0.424-0.256-0.64
			c-0.168-0.456-0.36-0.896-0.608-1.312c-0.136-0.232-0.304-0.432-0.464-0.648c-0.272-0.36-0.56-0.696-0.888-1.016
			c-0.2-0.192-0.416-0.368-0.64-0.544c-0.168-0.128-0.296-0.288-0.48-0.4c-0.216-0.136-0.456-0.208-0.672-0.328
			c-0.152-0.08-0.272-0.2-0.432-0.272l-11.512-5.112l59.376-59.376c12.32,9.864,27.912,15.8,44.888,15.8c39.696,0,72-32.296,72-72
			S447.696,0,408,0s-72,32.296-72,72c0,16.976,5.936,32.568,15.8,44.888l-63.72,63.72L248,162.8v-19.272
			C283.944,139.536,312,109,312,72c0-39.704-32.304-72-72-72s-72,32.296-72,72c0,37,28.056,67.536,64,71.528V162.8l-40.08,17.808
			l-63.72-63.72C138.064,104.568,144,88.976,144,72c0-39.704-32.304-72-72-72S0,32.296,0,72s32.304,72,72,72
			c16.976,0,32.568-5.936,44.888-15.8l59.376,59.376l-11.512,5.112c-0.168,0.072-0.288,0.2-0.448,0.288
			c-0.216,0.112-0.456,0.184-0.664,0.32c-0.176,0.112-0.312,0.272-0.48,0.4c-0.224,0.176-0.44,0.344-0.64,0.544
			c-0.328,0.312-0.616,0.648-0.888,1.016c-0.16,0.216-0.328,0.416-0.464,0.648c-0.248,0.416-0.44,0.856-0.608,1.312
			c-0.08,0.216-0.192,0.416-0.256,0.64C160.12,198.544,160,199.264,160,200v32h-16.472c-4-35.944-34.536-64-71.528-64
			c-39.696,0-72,32.296-72,72s32.304,72,72,72c36.992,0,67.536-28.056,71.528-64H160v32c0,3.168,1.864,6.024,4.752,7.312
			l11.512,5.112L116.888,351.8C104.568,341.936,88.976,336,72,336c-39.696,0-72,32.296-72,72c0,39.704,32.304,72,72,72
			s72-32.296,72-72c0-16.976-5.936-32.568-15.8-44.888l63.72-63.72L232,317.2v19.272C196.056,340.464,168,371,168,408
			c0,39.704,32.304,72,72,72s72-32.296,72-72c0-37-28.056-67.536-64-71.528V317.2l40.08-17.808l63.72,63.72
			C341.936,375.432,336,391.024,336,408c0,39.704,32.304,72,72,72s72-32.296,72-72c0-39.704-32.304-72-72-72
			c-16.976,0-32.568,5.936-44.888,15.8l-59.376-59.376l11.512-5.112C318.136,286.024,320,283.168,320,280z M408,184
			c30.88,0,56,25.128,56,56s-25.12,56-56,56s-56-25.128-56-56S377.12,184,408,184z M408,16c30.88,0,56,25.128,56,56s-25.12,56-56,56
			s-56-25.128-56-56S377.12,16,408,16z M72,128c-30.88,0-56-25.128-56-56s25.12-56,56-56s56,25.128,56,56S102.88,128,72,128z
			 M72,296c-30.88,0-56-25.128-56-56s25.12-56,56-56s56,25.128,56,56S102.88,296,72,296z M72,464c-30.88,0-56-25.128-56-56
			s25.12-56,56-56s56,25.128,56,56S102.88,464,72,464z M408,352c30.88,0,56,25.128,56,56s-25.12,56-56,56s-56-25.128-56-56
			S377.12,352,408,352z M184,72c0-30.872,25.12-56,56-56s56,25.128,56,56s-25.12,56-56,56S184,102.872,184,72z M176,274.808v-62.496
			l56,24.888v62.488L176,274.808z M296,408c0,30.872-25.12,56-56,56s-56-25.128-56-56s25.12-56,56-56S296,377.128,296,408z
			 M240,223.24l-17.432-7.744L187.704,200L240,176.76L292.296,200l-34.864,15.496L240,223.24z M304,274.808l-56,24.88V237.2
			l56-24.888V274.808z"/>
	</g>
</g>
<g>
	<g>
		<path d="M434.344,42.344L400,76.688l-18.344-18.344l-11.312,11.312l24,24C395.904,95.216,397.952,96,400,96
			c2.048,0,4.096-0.784,5.656-2.344l40-40L434.344,42.344z"/>
	</g>
</g>
<g>
	<g>
		<path d="M266.344,42.344L232,76.688l-18.344-18.344l-11.312,11.312l24,24C227.904,95.216,229.952,96,232,96
			c2.048,0,4.096-0.784,5.656-2.344l40-40L266.344,42.344z"/>
	</g>
</g>
<g>
	<g>
		<path d="M98.344,378.344L64,412.688l-18.344-18.344l-11.312,11.312l24,24C59.904,431.216,61.952,432,64,432
			s4.096-0.784,5.656-2.344l40-40L98.344,378.344z"/>
	</g>
</g>
<g>
	<g>
		<path d="M434.344,378.344L400,412.688l-18.344-18.344l-11.312,11.312l24,24c1.56,1.56,3.608,2.344,5.656,2.344
			c2.048,0,4.096-0.784,5.656-2.344l40-40L434.344,378.344z"/>
	</g>
</g>
<g>
	<g>
		<path d="M266.344,378.344L232,412.688l-18.344-18.344l-11.312,11.312l24,24c1.56,1.56,3.608,2.344,5.656,2.344
			c2.048,0,4.096-0.784,5.656-2.344l40-40L266.344,378.344z"/>
	</g>
</g>
<g>
</g>
<g>
</g>
<g>
</g>
<g>
</g>
<g>
</g>
<g>
</g>
<g>
</g>
<g>
</g>
<g>
</g>
<g>
</g>
<g>
</g>
<g>
</g>
<g>
</g>
<g>
</g>
<g>
</g>
</svg>
