<?xml version="1.0" encoding="iso-8859-1"?>
<!-- Generator: Adobe Illustrator 19.0.0, SVG Export Plug-In . SVG Version: 6.00 Build 0)  -->
<svg version="1.1" id="Capa_1" xmlns="http://www.w3.org/2000/svg" xmlns:xlink="http://www.w3.org/1999/xlink" x="0px" y="0px"
	 viewBox="0 0 480 480" style="enable-background:new 0 0 480 480;" xml:space="preserve">
<g>
	<g>
		<path d="M456,160v-24V8c0-4.424-3.584-8-8-8H224c-4.416,0-8,3.576-8,8v128v24h-16v-24v-32V72c0-4.424-3.584-8-8-8h-64
			c-4.416,0-8,3.576-8,8v32v32v24c-13.232,0-24,10.768-24,24s10.768,24,24,24h77.352l-17.144,40H64v-32H48v40v80v32h16v-24h80.76
			L232,359.856V408H16V56h112V40H8c-4.416,0-8,3.576-8,8v368v56c0,4.424,3.584,8,8,8h248c22.056,0,40-17.944,40-40v-24
			c0-4.424-3.584-8-8-8h-40v-51.384l83.424-20.856c1.68-0.416,3.176-1.368,4.264-2.712l82.928-102.072
			c5.328-6.56,6.736-15.16,3.968-22.976H456c13.232,0,24-10.768,24-24S469.232,160,456,160z M440,16v22.864
			C428.808,35.952,420.048,27.192,417.136,16H440z M232,16h22.864C251.952,27.192,243.192,35.952,232,38.864V16z M232,55.28
			c20.056-3.384,35.888-19.224,39.28-39.28h129.44c3.384,20.056,19.224,35.888,39.28,39.28v33.448
			c-20.056,3.384-35.888,19.224-39.28,39.28H271.28V128c-3.384-20.056-19.224-35.888-39.28-39.28V55.28z M440,105.136V128h-22.864
			C420.048,116.808,428.808,108.048,440,105.136z M232,105.136c11.192,2.912,19.952,11.672,22.864,22.864H232V105.136z M232,144h208
			v16H232V144z M136,80h48v16h-48V80z M136,112h48v16h-48V112z M136,144h48v16h-48V144z M280,424v16c0,13.232-10.768,24-24,24H16
			v-40h224H280z M406.2,220.88l-81.248,100l-91.736,22.936l-86.304-15.688c-0.472-0.08-0.952-0.128-1.432-0.128H64v-64h121.48
			c3.2,0,6.096-1.904,7.352-4.848L214.752,208h17.664l-6.872,55.008c-0.312,2.456,0.536,4.904,2.28,6.648l32,32
			c1.504,1.504,3.536,2.344,5.656,2.344h32c2.12,0,4.16-0.84,5.656-2.344l91.344-91.344c1.488-1.488,3.472-2.312,5.584-2.312
			c4.632,0,6.632,3.456,7.136,4.504C407.704,213.56,409.12,217.288,406.2,220.88z M241.896,261.112L248.544,208h31.568
			c-0.056,0.28-0.168,0.536-0.216,0.824L267,286.216L241.896,261.112z M282.92,288l12.76-76.544c0.328-2,2.04-3.456,4.064-3.456
			c1.616,0,2.632,0.872,3.088,1.392c0.464,0.52,1.2,1.64,1,3.24l-6.128,49.008L284.536,288H282.92z M319.328,208h5.208
			l-5.328,10.648l0.504-4.032C319.992,212.376,319.784,210.16,319.328,208z M340.672,211.496c1.08-2.16,3.248-3.496,5.656-3.496
			c3.176,0,4.808,2.096,5.36,2.992c0.56,0.896,1.696,3.304,0.28,6.144l-13.064,26.128l-28.224,28.224L340.672,211.496z M367.712,208
			h6.456l-5.552,5.552C368.552,211.68,368.248,209.816,367.712,208z M456,192H241.48h-32H120c-4.408,0-8-3.584-8-8s3.592-8,8-8h8h64
			h32h224h8c4.408,0,8,3.584,8,8S460.408,192,456,192z"/>
	</g>
</g>
<g>
	<g>
		<path d="M336,32c-22.056,0-40,17.944-40,40c0,22.056,17.944,40,40,40c22.056,0,40-17.944,40-40C376,49.944,358.056,32,336,32z
			 M336,96c-13.232,0-24-10.768-24-24s10.768-24,24-24s24,10.768,24,24S349.232,96,336,96z"/>
	</g>
</g>
<g>
	<g>
		<rect x="48" y="184" width="16" height="16"/>
	</g>
</g>
<g>
	<g>
		<rect x="48" y="152" width="16" height="16"/>
	</g>
</g>
<g>
	<g>
		<rect x="48" y="120" width="16" height="16"/>
	</g>
</g>
<g>
</g>
<g>
</g>
<g>
</g>
<g>
</g>
<g>
</g>
<g>
</g>
<g>
</g>
<g>
</g>
<g>
</g>
<g>
</g>
<g>
</g>
<g>
</g>
<g>
</g>
<g>
</g>
<g>
</g>
</svg>
