<?xml version="1.0" encoding="iso-8859-1"?>
<!-- Generator: Adobe Illustrator 19.0.0, SVG Export Plug-In . SVG Version: 6.00 Build 0)  -->
<svg version="1.1" id="Capa_1" xmlns="http://www.w3.org/2000/svg" xmlns:xlink="http://www.w3.org/1999/xlink" x="0px" y="0px"
	 viewBox="0 0 480 480" style="enable-background:new 0 0 480 480;" xml:space="preserve">
<g>
	<g>
		<path d="M424,304v-24c0-32.576-24.48-59.488-56-63.448V192h16c52.936,0,96-43.064,96-96c0-52.936-43.064-96-96-96H280
			c-13.936,0-27.352,3.112-40,8.952C227.352,3.112,213.936,0,200,0H96C43.064,0,0,43.064,0,96s43.064,96,96,96h16v24.552
			c-31.52,3.96-56,30.872-56,63.448v24c-22.056,0-40,17.944-40,40v96c0,22.056,17.944,40,40,40h128c22.056,0,40-17.944,40-40v-96
			c0-22.056-17.944-40-40-40v-24c0-32.576-24.48-59.488-56-63.448V192h72c13.936,0,27.352-3.112,40-8.952
			c12.648,5.84,26.064,8.952,40,8.952h72v24.552c-31.52,3.96-56,30.872-56,63.448v24c-22.056,0-40,17.944-40,40v96
			c0,22.056,17.944,40,40,40h128c22.056,0,40-17.944,40-40v-96C464,321.944,446.056,304,424,304z M208,344v96
			c0,13.232-10.768,24-24,24H56c-13.232,0-24-10.768-24-24v-96c0-13.232,10.768-24,24-24h128C197.232,320,208,330.768,208,344z
			 M168,280v24H72v-24c0-26.472,21.528-48,48-48S168,253.528,168,280z M236.352,167.192C224.944,173.04,212.712,176,200,176H96
			c-44.112,0-80-35.888-80-80s35.888-80,80-80h104c7.688,0,15.184,1.08,22.448,3.224c-5.216,3.912-10.024,8.344-14.376,13.28
			C205.4,32.168,202.696,32,200,32H96c-35.288,0-64,28.712-64,64c0,35.288,28.712,64,64,64h104c4.32,0,8.648-0.432,12.864-1.296
			c12.496-2.552,23.848-8.76,32.848-17.952C257.504,128.712,264,112.816,264,96c0-3.152-0.304-6.264-0.752-9.328
			c-0.08-0.568-0.152-1.128-0.248-1.688c-0.512-2.944-1.224-5.824-2.128-8.64c-0.168-0.528-0.368-1.04-0.552-1.56
			c-2.048-5.808-4.928-11.296-8.592-16.32c-0.192-0.264-0.328-0.568-0.528-0.832c4.344-3.28,9.184-5.776,14.352-7.408
			C275.024,63.688,280,79.408,280,96c0,18.296-6.056,35.536-17.512,49.872C255.352,154.8,246.552,161.976,236.352,167.192z
			 M196.944,144H96c-26.472,0-48-21.528-48-48s21.528-48,48-48h100.944C188.48,62.536,184,78.872,184,96S188.48,129.464,196.944,144
			z M232,96c0-2.128,0.192-4.224,0.464-6.304c0.064-0.504,0.136-1.008,0.224-1.504c0.336-2.048,0.76-4.08,1.352-6.056
			c0.024-0.088,0.064-0.168,0.088-0.256c0.584-1.904,1.32-3.752,2.144-5.56c0.208-0.456,0.416-0.912,0.632-1.36
			c0.904-1.848,1.896-3.648,3.04-5.376c0.016-0.024,0.04-0.056,0.056-0.08c0.016,0.024,0.04,0.056,0.056,0.08
			c1.144,1.72,2.136,3.528,3.04,5.368c0.224,0.456,0.432,0.912,0.64,1.368c0.816,1.808,1.552,3.656,2.136,5.552
			c0.024,0.088,0.064,0.168,0.088,0.256c0.592,1.976,1.016,4,1.352,6.056c0.08,0.504,0.152,1.008,0.224,1.52
			C247.808,91.784,248,93.872,248,96c0,2.12-0.192,4.216-0.464,6.288c-0.064,0.512-0.144,1.016-0.224,1.528
			c-0.336,2.04-0.76,4.064-1.352,6.04c-0.032,0.104-0.08,0.208-0.112,0.312c-0.576,1.88-1.304,3.704-2.112,5.488
			c-0.216,0.472-0.424,0.936-0.656,1.4c-0.904,1.832-1.888,3.632-3.024,5.352c-0.016,0.024-0.04,0.056-0.064,0.08
			c-0.016-0.032-0.04-0.056-0.064-0.08c-1.136-1.72-2.128-3.52-3.024-5.352c-0.224-0.464-0.44-0.928-0.648-1.392
			c-0.808-1.792-1.536-3.616-2.12-5.496c-0.032-0.104-0.08-0.208-0.112-0.312c-0.592-1.968-1.016-4-1.352-6.04
			c-0.08-0.504-0.152-1.008-0.224-1.512C232.192,100.224,232,98.128,232,96z M280,176c-7.688,0-15.184-1.08-22.448-3.224
			c5.216-3.912,10.024-8.344,14.376-13.28C274.6,159.832,277.304,160,280,160h104c35.288,0,64-28.712,64-64
			c0-35.288-28.712-64-64-64H280c-4.32,0-8.648,0.432-12.864,1.296c-12.496,2.552-23.848,8.76-32.848,17.952
			C222.496,63.288,216,79.176,216,96c0,3.152,0.304,6.256,0.752,9.328c0.08,0.568,0.152,1.128,0.248,1.688
			c0.512,2.944,1.224,5.824,2.136,8.64c0.168,0.528,0.368,1.04,0.552,1.56c2.04,5.808,4.92,11.288,8.592,16.312
			c0.2,0.272,0.336,0.576,0.536,0.848c-4.344,3.28-9.184,5.776-14.352,7.408C204.976,128.312,200,112.592,200,96
			c0-18.296,6.056-35.536,17.512-49.872c7.136-8.928,15.928-16.104,26.136-21.328C255.056,18.96,267.288,16,280,16h104
			c44.112,0,80,35.888,80,80s-35.888,80-80,80H280z M283.056,48H384c26.472,0,48,21.528,48,48s-21.528,48-48,48H283.056
			C291.52,129.464,296,113.128,296,96S291.52,62.536,283.056,48z M312,280c0-26.472,21.528-48,48-48s48,21.528,48,48v24h-96V280z
			 M448,440c0,13.232-10.768,24-24,24H296c-13.232,0-24-10.768-24-24v-96c0-13.232,10.768-24,24-24h128c13.232,0,24,10.768,24,24
			V440z"/>
	</g>
</g>
<g>
	<g>
		<path d="M120,336c-22.056,0-40,17.944-40,40c0,12.504,6.032,24.328,16,31.832V440c0,4.416,3.576,8,8,8h32c4.424,0,8-3.584,8-8
			v-32.168c9.968-7.512,16-19.328,16-31.832C160,353.944,142.056,336,120,336z M131.976,396.648
			c-2.464,1.432-3.976,4.064-3.976,6.912V432h-16v-28.44c0-2.848-1.512-5.48-3.976-6.912C100.496,392.264,96,384.544,96,376
			c0-13.232,10.768-24,24-24s24,10.768,24,24C144,384.544,139.504,392.264,131.976,396.648z"/>
	</g>
</g>
<g>
	<g>
		<path d="M360,336c-22.056,0-40,17.944-40,40c0,12.504,6.032,24.328,16,31.832V440c0,4.416,3.576,8,8,8h32c4.424,0,8-3.584,8-8
			v-32.168c9.968-7.512,16-19.328,16-31.832C400,353.944,382.056,336,360,336z M371.976,396.648
			c-2.464,1.432-3.976,4.064-3.976,6.912V432h-16v-28.44c0-2.848-1.512-5.48-3.976-6.912C340.496,392.264,336,384.544,336,376
			c0-13.232,10.768-24,24-24s24,10.768,24,24C384,384.544,379.504,392.264,371.976,396.648z"/>
	</g>
</g>
<g>
	<g>
		<rect x="176" y="432" width="16" height="16"/>
	</g>
</g>
<g>
	<g>
		<rect x="416" y="432" width="16" height="16"/>
	</g>
</g>
<g>
</g>
<g>
</g>
<g>
</g>
<g>
</g>
<g>
</g>
<g>
</g>
<g>
</g>
<g>
</g>
<g>
</g>
<g>
</g>
<g>
</g>
<g>
</g>
<g>
</g>
<g>
</g>
<g>
</g>
</svg>
