<?xml version="1.0" encoding="iso-8859-1"?>
<!-- Generator: Adobe Illustrator 19.0.0, SVG Export Plug-In . SVG Version: 6.00 Build 0)  -->
<svg version="1.1" id="Capa_1" xmlns="http://www.w3.org/2000/svg" xmlns:xlink="http://www.w3.org/1999/xlink" x="0px" y="0px"
	 viewBox="0 0 480 480" style="enable-background:new 0 0 480 480;" xml:space="preserve">
<g>
	<g>
		<path d="M461.656,154.335l-31.896-31.896l-56.2-56.2l-31.896-31.896c-3.128-3.128-8.184-3.128-11.312,0l-4.32,4.32l-59.2-22.768
			h-0.008l-39.936-15.36c-1.024-0.392-2.072-0.56-3.104-0.52c-0.04,0-0.08,0.024-0.12,0.024c-0.984,0.048-1.952,0.248-2.848,0.64
			c-0.32,0.136-0.56,0.408-0.864,0.592c-1.448,0.864-2.696,2.08-3.368,3.768L212,16.495L102.864,32.071
			c-2.128,0.304-4.032,1.448-5.304,3.168c-1.272,1.736-1.808,3.896-1.464,6.016l3.816,23.832l-79.496,39.744
			c-2.048,1.024-3.56,2.888-4.152,5.104c-0.584,2.216-0.192,4.584,1.08,6.496l24.304,36.464c0,0.008,0.008,0.008,0.008,0.016
			l71.688,107.528l0.128-0.088c0.288,0.44,0.48,0.92,0.872,1.304l31.896,31.896l11.816,11.816
			C145.36,309.095,136,320.727,136,334.615c0,0.52,0.12,1.008,0.152,1.52c-0.52-0.024-1.008-0.144-1.528-0.144
			c-16.88,0-30.624,13.744-30.624,30.624c0,8.176,3.184,15.872,8.968,21.656l26.752,26.752c3.488,3.488,7.712,5.896,12.28,7.368
			v57.6h16v-56.768c13.704-3.04,24-15.256,24-29.856c0-0.52-0.12-1.008-0.152-1.52c0.52,0.024,1.008,0.144,1.528,0.144
			c13.888,0,25.52-9.36,29.256-22.056l11.712,11.712c1.56,1.56,3.608,2.344,5.656,2.344c2.048,0,4.096-0.784,5.656-2.344
			L260,367.303l12,12v12.688h16v-16c0-2.128-0.84-4.16-2.344-5.656L248,332.679v-28.688c0-2.128-0.84-4.16-2.344-5.656
			l-33.376-33.376c-9.36-9.36-9.36-24.576,0-33.936l3.72-3.72l50.344,50.344c1.496,1.504,3.528,2.344,5.656,2.344h64v200h16V275.303
			l77.76-77.76l31.896-31.896C464.784,162.519,464.784,157.463,461.656,154.335z M336,51.303l20.832,20.84
			c-11.512,10.096-30.144,10.096-41.656,0L336,51.303z M228.496,18.287l15.944,6.136l11.096,4.272
			C253.344,39.679,243.624,47.991,232,47.991c-4.952,0-9.664-1.504-13.656-4.32L228.496,18.287z M212.376,58.583
			c5.944,3.416,12.592,5.408,19.624,5.408c18.424,0,33.816-12.584,38.448-29.568l43.192,16.616l-15.192,15.192L149.904,214.775
			L212.376,58.583z M151.368,41.303l53.768-7.68l-67.184,167.944L119.656,87.223c18.4-3.592,32.344-19.8,32.344-39.232
			C152,45.743,151.752,43.511,151.368,41.303z M135.56,43.559c0.288,1.472,0.44,2.944,0.44,4.432
			c0,11.512-8.152,21.168-18.856,23.472l-3.952-24.704L135.56,43.559z M50.824,137.799L35.68,115.095l26.592-13.288
			c1.152,3.28,1.728,6.68,1.728,10.184C64,122.287,58.984,131.847,50.824,137.799z M121.224,243.399l-61.592-92.376
			C72.192,142.135,80,127.679,80,111.991c0-5.92-1.232-11.776-3.432-17.336l26-13l23.816,148.84L121.224,243.399z M152.152,276.823
			l-20.84-20.832l20.84-20.832c5.04,5.76,7.848,13.064,7.848,20.832C160,263.759,157.192,271.063,152.152,276.823z M161.376,407.991
			c-3.848,0-7.624-1.56-10.344-4.28l-26.752-26.752c-2.72-2.72-4.28-6.488-4.28-10.344c0-8.064,6.56-14.624,14.624-14.624
			c3.848,0,7.624,1.56,10.344,4.28l26.752,26.752c2.72,2.72,4.28,6.488,4.28,10.344C176,401.431,169.44,407.991,161.376,407.991z
			 M193.376,375.991c-3.848,0-7.624-1.56-10.344-4.28l-26.752-26.752c-2.72-2.72-4.28-6.488-4.28-10.344
			c0-8.064,6.56-14.624,14.624-14.624c3.848,0,7.624,1.56,10.344,4.28l26.752,26.752c2.72,2.72,4.28,6.488,4.28,10.344
			C208,369.431,201.44,375.991,193.376,375.991z M234.344,341.647l14.344,14.344L240,364.679l-20.784-20.784
			c3.776-3.312,8.192-5.656,12.984-6.88C232.432,338.751,233.088,340.399,234.344,341.647z M340.688,263.991h-65.376l-53.656-53.656
			c-3.128-3.128-8.184-3.128-11.312,0l-9.376,9.376c-15.592,15.592-15.592,40.968,0,56.56L232,307.303v13.432
			c-9.024,1.528-17.328,5.6-24.112,11.824l-19.608-19.608l-24.856-24.856c8.04-8.752,12.576-20.024,12.576-32.104
			c0-12.08-4.536-23.352-12.576-32.112L303.88,83.423c8.768,8.032,20.04,12.568,32.12,12.568c12.08,0,23.352-4.536,32.112-12.576
			l44.456,44.456c-8.032,8.768-12.568,20.04-12.568,32.12s4.536,23.352,12.576,32.112L340.688,263.991z M423.848,180.823
			c-5.04-5.76-7.848-13.064-7.848-20.832s2.808-15.072,7.848-20.832l20.84,20.832L423.848,180.823z"/>
	</g>
</g>
<g>
	<g>
		<path d="M296,151.991c-26.472,0-48,21.528-48,48s21.528,48,48,48s48-21.528,48-48S322.472,151.991,296,151.991z M296,231.991
			c-17.648,0-32-14.352-32-32s14.352-32,32-32s32,14.352,32,32S313.648,231.991,296,231.991z"/>
	</g>
</g>
<g>
	<g>
		<path d="M472,263.991c-17.648,0-32-14.352-32-32c0-4.424-3.576-8-8-8s-8,3.576-8,8c0,17.648-14.352,32-32,32c-4.424,0-8,3.576-8,8
			s3.576,8,8,8c17.648,0,32,14.352,32,32c0,4.424,3.576,8,8,8s8-3.576,8-8c0-17.648,14.352-32,32-32c4.424,0,8-3.576,8-8
			S476.424,263.991,472,263.991z M432,285.487c-3.552-5.344-8.152-9.936-13.496-13.496c5.344-3.552,9.936-8.152,13.496-13.496
			c3.552,5.344,8.152,9.936,13.496,13.496C440.152,275.543,435.552,280.143,432,285.487z"/>
	</g>
</g>
<g>
	<g>
		<path d="M104,287.991c-22.056,0-40-17.944-40-40c0-4.424-3.576-8-8-8s-8,3.576-8,8c0,22.056-17.944,40-40,40c-4.424,0-8,3.576-8,8
			s3.576,8,8,8c22.056,0,40,17.944,40,40c0,4.424,3.576,8,8,8s8-3.576,8-8c0-22.056,17.944-40,40-40c4.424,0,8-3.576,8-8
			S108.424,287.991,104,287.991z M56,315.167c-4.728-7.84-11.336-14.448-19.176-19.176c7.84-4.728,14.448-11.336,19.176-19.176
			c4.728,7.84,11.336,14.456,19.176,19.176C67.336,300.719,60.72,307.327,56,315.167z"/>
	</g>
</g>
<g>
</g>
<g>
</g>
<g>
</g>
<g>
</g>
<g>
</g>
<g>
</g>
<g>
</g>
<g>
</g>
<g>
</g>
<g>
</g>
<g>
</g>
<g>
</g>
<g>
</g>
<g>
</g>
<g>
</g>
</svg>
