<?xml version="1.0" encoding="UTF-8" standalone="no"?>
<!DOCTYPE svg PUBLIC "-//W3C//DTD SVG 1.1//EN" "http://www.w3.org/Graphics/SVG/1.1/DTD/svg11.dtd">
<svg width="100%" height="100%" viewBox="0 0 245 70" version="1.1" xmlns="http://www.w3.org/2000/svg" xmlns:xlink="http://www.w3.org/1999/xlink" xml:space="preserve" xmlns:serif="http://www.serif.com/" style="fill-rule:evenodd;clip-rule:evenodd;stroke-linejoin:round;stroke-miterlimit:1.41421;">
    <g transform="matrix(1,0,0,1,-126,-215)">
        <g transform="matrix(1.19947,1.19947,-1.19947,1.19947,85.9252,114.871)">
            <path d="M107.5,30.158L100,30.158L100,37.658L75,37.658L75,12.658L82.5,12.658L82.5,5.158L107.5,5.158L107.5,30.158ZM104.75,7.908L85.25,7.908L85.25,27.408L92.5,27.408L92.5,30.158L82.5,30.158L82.5,15.408L77.75,15.408L77.75,34.908L97.25,34.908L97.25,15.408L90,15.408L90,12.658L100,12.658L100,27.408L104.75,27.408L104.75,7.908Z"/>
        </g>
        <g transform="matrix(0.964383,0,0,0.619656,113.193,225.104)">
            <g transform="matrix(0.642542,0,0,1,40.2405,0)">
                <path d="M153.39,15.04L153.39,22.036L127.058,22.036L127.058,35.29L153.311,35.29L153.311,42.321L127.058,42.321L127.058,56.981L153.311,56.981L153.311,64.083L118.761,64.083L118.761,15.04L153.39,15.04Z" style="fill-rule:nonzero;"/>
            </g>
            <g transform="matrix(0.642542,0,0,1,40.3841,0)">
                <path d="M184.644,39.508L200.57,64.083L191.218,64.083L180.109,46.786L168.859,64.083L159.543,64.083L175.398,39.473L159.648,15.04L168.859,15.04L180.039,32.337L191.218,15.04L200.57,15.04L184.644,39.508Z" style="fill-rule:nonzero;"/>
            </g>
            <g transform="matrix(0.642542,0,0,1,40.2405,0)">
                <path d="M242.16,15.04L242.16,22.036L215.828,22.036L215.828,35.29L242.231,35.29L242.231,42.321L215.828,42.321L215.828,56.981L242.231,56.981L242.231,64.083L207.531,64.083L207.531,15.04L242.16,15.04Z" style="fill-rule:nonzero;"/>
            </g>
            <g transform="matrix(0.642542,0,0,1,39.2036,0)">
                <path d="M261.988,15.04L261.988,47.524C261.988,49.235 262.269,50.764 262.832,52.112C263.394,53.46 264.144,54.596 265.082,55.522C266.019,56.448 267.103,57.151 268.334,57.632C269.564,58.112 270.847,58.352 272.183,58.352C273.613,58.352 275.002,58.13 276.349,57.684C277.697,57.239 278.898,56.571 279.953,55.68C281.008,54.79 281.851,53.676 282.484,52.341C283.117,51.005 283.433,49.446 283.433,47.665L283.433,15.04L291.73,15.04L291.73,47.313C291.73,50.243 291.185,52.827 290.095,55.065C289.006,57.303 287.558,59.184 285.754,60.708C283.949,62.231 281.875,63.38 279.531,64.153C277.187,64.926 274.761,65.313 272.254,65.313C269.863,65.313 267.549,64.932 265.31,64.171C263.072,63.409 261.092,62.272 259.369,60.76C257.646,59.249 256.269,57.356 255.238,55.083C254.207,52.809 253.691,50.173 253.691,47.173L253.691,15.04L261.988,15.04Z" style="fill-rule:nonzero;"/>
            </g>
            <g transform="matrix(0.642542,0,0,1,37.1297,0)">
                <path d="M313.597,15.04L327.308,53.501L341.3,15.04L350.652,15.04L350.652,64.083L342.355,64.083L342.355,31.704L331.07,64.083L324.039,64.083L315.686,40.48L312.543,31.598L312.543,64.083L304.246,64.083L304.246,15.04L313.597,15.04Z" style="fill-rule:nonzero;"/>
            </g>
        </g>
    </g>
</svg>
