<?xml version="1.0" encoding="UTF-8" standalone="no"?>
<!DOCTYPE svg PUBLIC "-//W3C//DTD SVG 1.1//EN" "http://www.w3.org/Graphics/SVG/1.1/DTD/svg11.dtd">
<svg width="100%" height="100%" viewBox="0 0 260 70" version="1.1" xmlns="http://www.w3.org/2000/svg" xmlns:xlink="http://www.w3.org/1999/xlink" xml:space="preserve" xmlns:serif="http://www.serif.com/" style="fill-rule:evenodd;clip-rule:evenodd;stroke-linejoin:round;stroke-miterlimit:1.41421;">
    <g transform="matrix(1,0,0,1,-118.5,-215)">
        <g transform="matrix(1.19947,1.19947,-1.19947,1.19947,79.7973,114.87)">
            <path d="M107.5,30.158L100,30.158L100,37.658L75,37.658L75,12.658L82.5,12.658L82.5,5.158L107.5,5.158L107.5,30.158ZM104.75,7.908L85.25,7.908L85.25,27.408L92.5,27.408L92.5,30.158L82.5,30.158L82.5,15.408L77.75,15.408L77.75,34.908L97.25,34.908L97.25,15.408L90,15.408L90,12.658L100,12.658L100,27.408L104.75,27.408L104.75,7.908Z"/>
        </g>
        <g transform="matrix(1.34717,0,0,1.11259,89.3327,221.133)">
            <g transform="matrix(0.825871,0,0,1,16.4056,0)">
                <path d="M98.439,42.409L98.439,8.905L119.223,8.905L119.223,12.889L103.095,12.889L103.095,23.449L118.695,23.449L118.695,27.433L103.095,27.433L103.095,38.425L119.223,38.425L119.223,42.409L98.439,42.409Z" style="fill-rule:nonzero;"/>
            </g>
            <g transform="matrix(0.825871,0,0,1,16.4056,0)">
                <path d="M150.759,42.409L145.527,42.409L141.495,35.833L137.463,28.921L137.223,28.921L133.095,35.833L129.111,42.409L124.119,42.409L134.679,25.273L124.647,8.905L129.879,8.905L133.671,15.145L137.415,21.673L137.655,21.673L141.543,15.145L145.287,8.905L150.279,8.905L140.199,25.273L150.759,42.409Z" style="fill-rule:nonzero;"/>
            </g>
            <g transform="matrix(0.825871,0,0,1,16.4056,0)">
                <path d="M156.039,42.409L156.039,8.905L176.823,8.905L176.823,12.889L160.695,12.889L160.695,23.449L176.295,23.449L176.295,27.433L160.695,27.433L160.695,38.425L176.823,38.425L176.823,42.409L156.039,42.409Z" style="fill-rule:nonzero;"/>
            </g>
            <g transform="matrix(0.825871,0,0,1,16.4056,0)">
                <path d="M188.871,8.905L188.871,29.209C188.871,30.745 188.911,32.121 188.991,33.337C189.071,34.553 189.311,35.585 189.711,36.433C190.111,37.281 190.727,37.929 191.559,38.377C192.391,38.825 193.543,39.049 195.015,39.049C196.487,39.049 197.639,38.825 198.471,38.377C199.303,37.929 199.919,37.281 200.319,36.433C200.719,35.585 200.959,34.553 201.039,33.337C201.119,32.121 201.159,30.745 201.159,29.209L201.159,8.905L205.815,8.905L205.815,28.249C205.815,30.713 205.687,32.865 205.431,34.705C205.175,36.545 204.655,38.073 203.871,39.289C203.087,40.505 201.991,41.425 200.583,42.049C199.175,42.673 197.319,42.985 195.015,42.985C192.711,42.985 190.855,42.673 189.447,42.049C188.039,41.425 186.943,40.505 186.159,39.289C185.375,38.073 184.855,36.545 184.599,34.705C184.343,32.865 184.215,30.713 184.215,28.249L184.215,8.905L188.871,8.905Z" style="fill-rule:nonzero;"/>
            </g>
            <g transform="matrix(0.825871,0,0,1,16.4056,0)">
                <path d="M231.015,25.945L231.111,15.577L230.727,15.577L223.815,32.809L216.903,15.577L216.519,15.577L216.615,25.945L216.615,42.409L212.391,42.409L212.391,8.905L218.247,8.905L223.815,23.017L224.103,23.017L229.671,8.905L235.239,8.905L235.239,42.409L231.015,42.409L231.015,25.945Z" style="fill-rule:nonzero;"/>
            </g>
        </g>
    </g>
</svg>
