<?xml version="1.0" encoding="iso-8859-1"?>
<!-- Generator: Adobe Illustrator 19.0.0, SVG Export Plug-In . SVG Version: 6.00 Build 0)  -->
<svg version="1.1" id="Capa_1" xmlns="http://www.w3.org/2000/svg" xmlns:xlink="http://www.w3.org/1999/xlink" x="0px" y="0px"
	 viewBox="0 0 480 480" style="enable-background:new 0 0 480 480;" xml:space="preserve">
<g>
	<g>
		<path d="M440,280c22.056,0,40-17.944,40-40c0-22.056-17.944-40-40-40c-8.136,0-15.696,2.472-22.024,6.664L351.312,140
			l66.664-66.664C424.304,77.528,431.864,80,440,80c22.056,0,40-17.944,40-40c0-22.056-17.944-40-40-40c-22.056,0-40,17.944-40,40
			c0,8.136,2.472,15.696,6.664,22.024L340,128.688l-66.664-66.664C277.528,55.696,280,48.136,280,40c0-22.056-17.944-40-40-40
			c-22.056,0-40,17.944-40,40c0,8.136,2.472,15.696,6.664,22.024L140,128.688L73.336,62.024C77.528,55.696,80,48.136,80,40
			C80,17.944,62.056,0,40,0C17.944,0,0,17.944,0,40c0,22.056,17.944,40,40,40c0.984,0,1.904-0.216,2.864-0.288l47.944,98.168
			l-28.784,28.784C55.696,202.472,48.136,200,40,200c-22.056,0-40,17.944-40,40c0,22.056,17.944,40,40,40
			c19.312,0,35.472-13.768,39.192-32h45.864l31.384,64.256l-94.416,94.408C55.696,402.472,48.136,400,40,400
			c-22.056,0-40,17.944-40,40c0,22.056,17.944,40,40,40c22.056,0,40-17.944,40-40c0-0.984-0.216-1.904-0.288-2.864l111.192-54.304
			l16.608,34.008C202.824,423.392,200,431.352,200,440c0,22.056,17.944,40,40,40c22.056,0,40-17.944,40-40
			c0-19.312-13.768-35.472-32-39.192v-45.864l64.256-31.384l94.408,94.408C402.472,424.304,400,431.864,400,440
			c0,22.056,17.944,40,40,40c22.056,0,40-17.944,40-40c0-22.056-17.944-40-40-40c-3.608,0-7.032,0.632-10.36,1.528l-56.432-107.736
			l43.632-21.312C423.392,277.176,431.352,280,440,280z M440,16c13.232,0,24,10.768,24,24s-10.768,24-24,24s-24-10.768-24-24
			S426.768,16,440,16z M40,264c-13.232,0-24-10.768-24-24s10.768-24,24-24s24,10.768,24,24S53.232,264,40,264z M40,464
			c-13.232,0-24-10.768-24-24s10.768-24,24-24s24,10.768,24,24S53.232,464,40,464z M440,416c13.232,0,24,10.768,24,24
			s-10.768,24-24,24s-24-10.768-24-24S426.768,416,440,416z M328.688,140l-23.648,23.648l-46.36-88.496
			c1.12-0.6,2.288-1.12,3.344-1.816L328.688,140z M300.96,190.352L322.776,232h-63.464L300.96,190.352z M248,220.688V89.24
			l45.184,86.264L248,220.688z M217.976,73.336c4.192,2.784,8.928,4.816,14.024,5.856v141.496L151.312,140L217.976,73.336z M40,64
			c-13.232,0-24-10.768-24-24s10.768-24,24-24s24,10.768,24,24S53.232,64,40,64z M58.488,75.256c1.184-0.624,2.416-1.184,3.536-1.92
			L128.688,140l-25.92,25.92L58.488,75.256z M79.192,232c-1.04-5.096-3.072-9.832-5.856-14.024l24.896-24.896L117.24,232H79.192z
			 M110.192,181.12L140,151.312L220.688,232H135.04L110.192,181.12z M142.856,248h77.832l-52.296,52.296L142.856,248z
			 M75.256,421.512c-0.624-1.184-1.184-2.416-1.92-3.536l90.52-90.52l20.024,41L75.256,421.512z M175.816,315.496L232,259.312
			v85.648l-33.744,16.48L175.816,315.496z M205.28,375.816L232,362.76v38.048c-4.384,0.896-8.416,2.64-12.152,4.84L205.28,375.816z
			 M264,440c0,13.232-10.768,24-24,24s-24-10.768-24-24s10.768-24,24-24S264,426.768,264,440z M240,64c-13.232,0-24-10.768-24-24
			s10.768-24,24-24s24,10.768,24,24S253.232,64,240,64z M248,337.144v-77.832l52.296,52.296L248,337.144z M259.312,248h71.848
			l20.24,38.648l-35.912,17.536L259.312,248z M410.192,398.88l-82.736-82.736l31.376-15.32L410.192,398.88z M365.792,279.624
			L349.224,248h51.592c0.896,4.384,2.64,8.416,4.84,12.152L365.792,279.624z M400.808,232H340.84l-28.024-53.504L340,151.312
			l66.664,66.664C403.88,222.168,401.848,226.904,400.808,232z M440,216c13.232,0,24,10.768,24,24s-10.768,24-24,24
			s-24-10.768-24-24S426.768,216,440,216z"/>
	</g>
</g>
<g>
</g>
<g>
</g>
<g>
</g>
<g>
</g>
<g>
</g>
<g>
</g>
<g>
</g>
<g>
</g>
<g>
</g>
<g>
</g>
<g>
</g>
<g>
</g>
<g>
</g>
<g>
</g>
<g>
</g>
</svg>
