<?xml version="1.0" encoding="iso-8859-1"?>
<!-- Generator: Adobe Illustrator 19.0.0, SVG Export Plug-In . SVG Version: 6.00 Build 0)  -->
<svg version="1.1" id="Capa_1" xmlns="http://www.w3.org/2000/svg" xmlns:xlink="http://www.w3.org/1999/xlink" x="0px" y="0px"
	 viewBox="0 0 480 480" style="enable-background:new 0 0 480 480;" xml:space="preserve">
<g>
	<g>
		<path d="M320,160c-45.432,0-86.408,19.128-115.56,49.64L184,173.872V119.36c20.408-11.792,32.816-33.912,31.96-57.712
			c-1.2-33.432-29.408-61.088-62.872-61.64c-17.528-0.272-33.632,6.24-45.96,18.36C94.792,30.496,88,46.704,88,64
			c0,22.8,12.408,44,32,55.36v54.512L91.352,224H40c-22.056,0-40,17.944-40,40v32c0,4.416,3.584,8,8,8h8v24c0,4.416,3.584,8,8,8
			h136.808c8.056,80.736,76.368,144,159.192,144c88.224,0,160-71.776,160-160S408.224,160,320,160z M160.64,307.288
			C160.248,311.68,160,315.936,160,320H32v-16h128.808C160.696,305.08,160.728,306.2,160.64,307.288z M171.504,260.792
			c-0.744,1.888-1.424,3.8-2.096,5.712c-1.36,3.808-2.568,7.672-3.64,11.608c-0.208,0.768-0.4,1.544-0.6,2.312
			c-0.648,2.52-1.408,5-1.928,7.568H24h-8V264c0-13.232,10.768-24,24-24h56c2.872,0,5.52-1.536,6.944-4.032l32-56
			C135.64,178.76,136,177.392,136,176v-61.464c0-3.088-1.776-5.896-4.56-7.224C114.768,99.384,104,82.376,104,64
			c0-12.976,5.096-25.128,14.344-34.224s21.472-14.008,34.472-13.768c25.096,0.416,46.248,21.152,47.152,46.216
			c0.688,19.144-10.064,36.84-27.4,45.088c-2.784,1.328-4.56,4.136-4.56,7.224V176c0,1.392,0.36,2.76,1.056,3.968l24.216,42.376
			c-4.856,6.296-9.16,12.984-13,19.928c-0.448,0.8-0.912,1.584-1.344,2.384c-1.816,3.416-3.48,6.904-5.04,10.448
			C173.056,256.984,172.264,258.872,171.504,260.792z M328,463.592V440h-16v23.592c-73.008-4.04-131.552-62.584-135.592-135.592H200
			v-16h-23.592c0.064-1.216,0.088-2.448,0.184-3.656c0.328-3.536,0.768-7.192,1.384-11.088c1.416-8.896,3.688-17.576,6.68-25.96
			c0.4-1.104,0.784-2.208,1.208-3.296c0.832-2.176,1.712-4.328,2.656-6.456c1.448-3.24,2.944-6.456,4.616-9.568
			c0.392-0.736,0.84-1.44,1.248-2.168c1.76-3.144,3.616-6.224,5.608-9.216c0.416-0.624,0.832-1.248,1.256-1.872
			C225.8,202.96,266.072,178.952,312,176.408V200h16v-23.592c73.008,4.04,131.552,62.584,135.592,135.592H440v16h23.592
			C459.552,401.008,401.008,459.552,328,463.592z"/>
	</g>
</g>
<g>
	<g>
		<path d="M417.08,375.904c-9.08,15.72-21.992,29.152-37.352,38.864l8.544,13.52c17.544-11.08,32.296-26.432,42.664-44.384
			L417.08,375.904z"/>
	</g>
</g>
<g>
	<g>
		<path d="M427.976,349.872c-1.4,5.072-3.176,10.088-5.296,14.928l14.664,6.408c2.416-5.528,4.448-11.28,6.048-17.072
			L427.976,349.872z"/>
	</g>
</g>
<g>
	<g>
		<path d="M421.128,246.144l-10.24-12.288l-78.696,65.584C328.6,297.304,324.464,296,320,296c-6.072,0-11.568,2.344-15.8,6.072
			l-52.32-29.064l-7.776,13.984l52.288,29.048c-0.208,1.296-0.392,2.608-0.392,3.96c0,13.232,10.768,24,24,24s24-10.768,24-24
			c0-2.92-0.6-5.696-1.56-8.288L421.128,246.144z M320,328c-4.408,0-8-3.592-8-8c0-4.408,3.592-8,8-8c4.408,0,8,3.592,8,8
			C328,324.408,324.408,328,320,328z"/>
	</g>
</g>
<g>
	<g>
		<rect x="312" y="376" width="16" height="16"/>
	</g>
</g>
<g>
	<g>
		<rect x="280" y="376" width="16" height="16"/>
	</g>
</g>
<g>
	<g>
		<rect x="344" y="376" width="16" height="16"/>
	</g>
</g>
<g>
</g>
<g>
</g>
<g>
</g>
<g>
</g>
<g>
</g>
<g>
</g>
<g>
</g>
<g>
</g>
<g>
</g>
<g>
</g>
<g>
</g>
<g>
</g>
<g>
</g>
<g>
</g>
<g>
</g>
</svg>
